<?xml version="1.0" encoding="utf-8"?>
<!-- Generator: Adobe Illustrator 16.0.0, SVG Export Plug-In . SVG Version: 6.00 Build 0)  -->
<!DOCTYPE svg PUBLIC "-//W3C//DTD SVG 1.1//EN" "http://www.w3.org/Graphics/SVG/1.1/DTD/svg11.dtd">
<svg version="1.1" id="Layer_1" xmlns="http://www.w3.org/2000/svg" xmlns:xlink="http://www.w3.org/1999/xlink" x="0px" y="0px"
	 width="100px" height="100px" viewBox="0 0 100 100" enable-background="new 0 0 100 100" xml:space="preserve">
<g>
	<path d="M71.557,62.122H50.357V47.636H88.87v47.7c-1.413,0.518-3.215,1.06-5.405,1.625c-2.191,0.565-4.642,1.073-7.35,1.52
		c-2.71,0.447-5.502,0.813-8.374,1.096C64.866,99.858,62.017,100,59.19,100c-8.479,0-15.889-1.144-22.225-3.428
		c-6.337-2.284-11.613-5.499-15.829-9.646c-4.217-4.146-7.374-9.081-9.47-14.805c-2.097-5.725-3.145-12.049-3.145-18.975
		c0-4.898,0.553-9.575,1.661-14.027c1.107-4.452,2.732-8.573,4.876-12.367c2.143-3.792,4.746-7.219,7.809-10.282
		c3.062-3.062,6.56-5.676,10.494-7.844C37.295,6.46,41.605,4.8,46.293,3.646c4.687-1.154,9.717-1.731,15.087-1.731
		c4.758,0,9.28,0.342,13.568,1.025c4.286,0.684,7.796,1.519,10.529,2.508v14.699c-3.675-1.177-7.385-2.072-11.13-2.685
		c-3.745-0.612-7.526-0.919-11.342-0.919c-5.137,0-9.941,0.766-14.417,2.297c-4.476,1.532-8.351,3.793-11.625,6.784
		c-3.274,2.992-5.854,6.678-7.738,11.059c-1.885,4.381-2.827,9.447-2.827,15.194c0.047,11.165,2.968,19.539,8.763,25.122
		c5.794,5.582,14.015,8.374,24.663,8.374c1.979,0,4.028-0.106,6.148-0.318s3.98-0.482,5.582-0.813V62.122z"/>
</g>
</svg>
